<?xml version="1.0" encoding="iso-8859-1"?>
<!-- Generator: Adobe Illustrator 22.0.0, SVG Export Plug-In . SVG Version: 6.00 Build 0)  -->
<svg version="1.1" id="Layer_1" xmlns="http://www.w3.org/2000/svg" xmlns:xlink="http://www.w3.org/1999/xlink" x="0px" y="0px"
	 viewBox="0 0 16 16" style="enable-background:new 0 0 16 16;" xml:space="preserve">
<path d="M3.548,16.002c-1.875,0-2.541-0.98-2.541-2.77V2.346C0.87,1.194,1.693,0.15,2.844,0.013c0.127-0.015,0.255-0.019,0.382-0.01
	h9.781v12H3.57c-0.78-0.005-1.416,0.624-1.42,1.404c0,0.039,0.001,0.078,0.004,0.117C2.079,14.263,2.618,14.924,3.358,15
	c0.083,0.008,0.167,0.009,0.25,0.002h10.4V2.038h1v13.964H3.548z M3.864,13.002h9.143v1H3.865L3.864,13.002z"/>
</svg>
