<?xml version="1.0" encoding="utf-8"?>
<!-- Generator: Adobe Illustrator 21.0.0, SVG Export Plug-In . SVG Version: 6.00 Build 0)  -->
<svg version="1.1" id="Layer_1" xmlns="http://www.w3.org/2000/svg" xmlns:xlink="http://www.w3.org/1999/xlink" x="0px" y="0px"
	 viewBox="0 0 16 16" style="enable-background:new 0 0 16 16;" xml:space="preserve">
<style type="text/css">
	.st0{display:none;opacity:0.6;enable-background:new    ;}
	.st1{display:none;opacity:0.6;}
	.st2{display:inline;}
	.st3{opacity:0.6;}
</style>
<path class="st0" d="M10,11.6c2.9,0,6-2.1,6-5.3C16,3.4,13.3,1,10.4,1H5v2.8l5.4,0c1.7,0,2.8,0.8,2.8,2.4c0,2.2-1.6,2.5-3.3,2.5H6
	V5.5L0,10.2L6,15v-3.4C6,11.6,10,11.6,10,11.6z"/>
<path class="st0" d="M16,5.5l-2.6-0.9l-0.4-3.1L9.8,2.1L8,0L6.3,2.3L3.1,1.5L2.8,4.5L0,5.5L1.6,8L0,10.5l2.8,1.2l0.2,2.8l3.2-0.3
	L8,16l2-1.9l2.9,0.4l0.4-2.9l2.6-1.1l-1.4-2.6L16,5.5z"/>
<g class="st1">
	<path class="st2" d="M11.5,11.3c0,0,1.7,1.8,3.5,3.6V8C13.2,9.8,11.5,11.3,11.5,11.3z"/>
	<path class="st2" d="M6.6,10.4C5.5,11.5,2,15,2,15h12c0,0-3.6-3.6-4.6-4.6C8.4,9.4,7.7,9.4,6.6,10.4z"/>
	<path class="st2" d="M1,8v7c2-2,3.7-3.8,3.7-3.8S2.8,9.6,1,8z"/>
	<path class="st2" d="M8.5,1.3c-0.4-0.4-0.9-0.4-1.3,0L2,7h12L8.5,1.3z"/>
</g>
<g class="st3">
	<path d="M15.3,4.2c-0.8-0.8-2.1-0.8-2.9,0c-0.6,0.6-0.8,1.5-0.4,2.3L8.9,9.6C8.1,9.2,7.2,9.4,6.6,10c-0.8,0.8-0.8,2.1,0,2.9
		c0.8,0.8,2.1,0.8,2.9,0c0.6-0.6,0.7-1.4,0.5-2.2l3.1-3.1c0.7,0.3,1.6,0.1,2.2-0.5C16.1,6.3,16.1,5,15.3,4.2z"/>
	<path d="M7.3,5.6L6.6,6.3l1.1,1.1l2.6-2.6L7.7,2.1L6.6,3.2l0.7,0.7H6H5.2L3.5,5.6L2.9,6.2C2.2,5.9,1.3,6,0.7,6.6s-0.8,1.5-0.4,2.3
		c0.1,0.2,0.2,0.5,0.4,0.7C0.9,9.8,1.2,10,1.4,10c0.7,0.3,1.6,0.1,2.2-0.5C4.2,9,4.3,8.1,4.1,7.4l1.8-1.8L7.3,5.6L7.3,5.6z"/>
</g>
</svg>
