<?xml version="1.0" encoding="utf-8"?>
<!-- Generator: Adobe Illustrator 16.0.0, SVG Export Plug-In . SVG Version: 6.00 Build 0)  -->
<!DOCTYPE svg PUBLIC "-//W3C//DTD SVG 1.1//EN" "http://www.w3.org/Graphics/SVG/1.1/DTD/svg11.dtd">
<svg version="1.1" id="Layer_1" xmlns="http://www.w3.org/2000/svg" xmlns:xlink="http://www.w3.org/1999/xlink" x="0px" y="0px"
	 width="16px" height="16px" viewBox="0 0 16 16" enable-background="new 0 0 16 16" xml:space="preserve">
<path display="none" opacity="0.6" fill-rule="evenodd" clip-rule="evenodd" d="M9.962,11.576c2.877,0,6.038-2.091,6.038-5.334
	c0-2.889-2.728-5.226-5.605-5.226H4.999v2.811l5.426-0.026c1.653,0,2.833,0.779,2.833,2.441c0,2.194-1.64,2.454-3.296,2.454H5.951
	V5.501l-5.935,4.655l5.935,4.845v-3.425H9.962z"/>
<path display="none" opacity="0.6" fill-rule="evenodd" clip-rule="evenodd" d="M3.439,6.813l2.52,2.932c0,0,3.84-4.344,7.185-8.229
	c0.963,1.309,0.554,0.677,1.856,2.197c-1.659,1.851-7.31,8.726-9.126,10.789c-2.041-2.36-3.904-4.287-4.859-5.435L3.439,6.813z"/>
<path opacity="0.6" fill-rule="evenodd" clip-rule="evenodd" d="M16,5.535l-2.612-0.866l-0.443-3.124L9.83,2.069L8.009,0.017
	l-1.714,2.27L3.06,1.545L2.846,4.464L0.017,5.535l1.534,2.474l-1.534,2.474l2.829,1.185l0.214,2.807l3.235-0.321L8.009,16
	l2.037-1.95l2.898,0.424l0.443-2.92L16,10.482l-1.427-2.576L16,5.535z"/>
<g display="none" opacity="0.6">
	<path display="inline" fill-rule="evenodd" clip-rule="evenodd" d="M11.505,11.313c0,0,1.707,1.788,3.496,3.627V7.998
		C13.192,9.796,11.505,11.313,11.505,11.313z"/>
	<path display="inline" fill-rule="evenodd" clip-rule="evenodd" d="M6.58,10.435c-1.079,1.029-4.565,4.566-4.565,4.566h11.987
		c0,0-3.596-3.596-4.605-4.616C8.378,9.367,7.65,9.396,6.58,10.435z"/>
	<path display="inline" fill-rule="evenodd" clip-rule="evenodd" d="M1.016,8.008v6.993c1.998-1.998,3.706-3.767,3.706-3.767
		S2.844,9.576,1.016,8.008z"/>
	<path display="inline" fill-rule="evenodd" clip-rule="evenodd" d="M8.528,1.314c-0.379-0.399-0.909-0.399-1.289,0L2.015,6.999
		h11.987L8.528,1.314z"/>
</g>
</svg>
